<svg xmlns="http://www.w3.org/2000/svg" width="29" height="16" viewBox="0 0 29 16">
    <path fill="#6FD0A7" fill-rule="nonzero" d="M28.01 5.439a1.495 1.495 0 0 0-1.142-.558h-.646v-.522c0-.937-.814-1.7-1.814-1.7h-.852v-.963c0-.454-.194-.896-.53-1.214-.67-.633-1.826-.633-2.496 0-.337.318-.53.76-.53 1.214v4.519H8.444V1.696a1.68 1.68 0 0 0-.53-1.214C7.246-.15 6.089-.15 5.42.482a1.68 1.68 0 0 0-.53 1.214v.963h-.956c-.449 0-.874.162-1.197.457-.326.3-.514.719-.514 1.148v.617h-.64a1.5 1.5 0 0 0-1.146.56C.156 5.779 0 6.223 0 6.69v2.602c0 .468.155.912.436 1.25a1.5 1.5 0 0 0 1.146.56h.64v.617c0 .43.188.848.515 1.149.322.294.747.456 1.196.456h.956v.963c0 .454.193.896.53 1.214.334.316.777.49 1.248.49.47 0 .913-.174 1.248-.49.337-.318.53-.76.53-1.214V9.77H20v4.518c0 .454.193.896.53 1.214.334.316.778.49 1.248.49s.913-.174 1.248-.49c.336-.318.53-.76.53-1.214v-.963h.852c1 0 1.814-.762 1.814-1.7v-.522h.646c.43 0 .846-.203 1.142-.558.28-.336.435-.778.435-1.244V6.684c0-.467-.155-.909-.435-1.245zM1.582 10.214a.609.609 0 0 1-.462-.24 1.074 1.074 0 0 1-.231-.68V6.69c0-.257.084-.505.23-.681a.609.609 0 0 1 .463-.24h.64v4.444h-.64zm2.351 2.222a.888.888 0 0 1-.595-.222.669.669 0 0 1-.227-.494V4.264c0-.184.08-.36.226-.493a.891.891 0 0 1 .596-.223h.956v8.888h-.956zm3.623 1.852c0 .213-.09.415-.252.568-.333.314-.941.314-1.275 0a.776.776 0 0 1-.251-.568V1.696c0-.213.09-.415.25-.568a.936.936 0 0 1 .639-.247c.238 0 .47.09.637.247a.778.778 0 0 1 .252.568V14.288zm.888-5.407V7.103H20v1.778H8.444zm14.223 5.407c0 .213-.09.415-.251.568-.334.314-.942.314-1.276 0a.776.776 0 0 1-.251-.568V1.696c0-.213.09-.414.251-.567a.936.936 0 0 1 .638-.248c.238 0 .47.09.638.248a.776.776 0 0 1 .25.567V14.288zm2.666-2.663c0 .447-.415.811-.925.811h-.852V3.548h.852c.51 0 .925.364.925.811v7.266zM27.556 9.3c0 .256-.084.501-.229.676a.603.603 0 0 1-.459.238h-.646V5.77h.646c.168 0 .331.084.46.238.144.174.228.42.228.676V9.3z"/>
</svg>
