<svg xmlns="http://www.w3.org/2000/svg" width="24" height="26" viewBox="0 0 24 26">
    <g fill="#798F96" fill-rule="nonzero">
        <path d="M6 15.414c.163 0 .316.135.43.379.066.138.151.207.237.207.085 0 .17-.07.235-.207.13-.276.13-.724 0-1C6.662 14.282 6.341 14 6 14c-.34 0-.661.282-.902.793-.13.276-.13.724 0 1s.341.276.471 0c.115-.244.268-.379.431-.379zM16.098 14.792a1.33 1.33 0 0 0 0 1c.13.277.34.277.471 0 .238-.504.624-.503.862 0 .065.139.15.208.236.208.085 0 .17-.07.235-.207a1.33 1.33 0 0 0 0-1.001c-.497-1.056-1.307-1.056-1.804 0zM17.15 20.134c-2.84 2.605-7.46 2.605-10.3 0a.53.53 0 0 0-.704 0 .43.43 0 0 0 0 .645C7.76 22.26 9.88 23 12 23s4.24-.74 5.854-2.22a.43.43 0 0 0 0-.646.53.53 0 0 0-.704 0z"/>
        <path d="M24 15.578c0-1.332-.999-2.443-2.312-2.674V4.702c0-1.064-.549-2.05-1.469-2.64a3.381 3.381 0 0 0-2.906-.348L14.12.67C11.667-.133 9.084-.216 6.652.43c-3.185.847-5.01 2.638-5.292 5.184a3.68 3.68 0 0 0-.582 1.058L.53 7.38a.824.824 0 0 0 .365.992.895.895 0 0 0 1.086-.108 1.77 1.77 0 0 1 .33-.242v4.882C1 13.135 0 14.246 0 15.578c0 1.385 1.08 2.53 2.47 2.697.35 1.86 1.268 3.574 2.671 4.947A9.747 9.747 0 0 0 12 26h.001c2.587 0 5.02-.972 6.85-2.736 1.429-1.377 2.356-3.11 2.694-4.99C22.928 18.1 24 16.956 24 15.577zM19.657 2.88c.644.412 1.014 1.076 1.014 1.822v6.416c-1.579-.237-2.79-1.556-2.79-3.143l-.043-5.39a2.296 2.296 0 0 1 1.819.295zM1.643 7.269l.098-.282A2.791 2.791 0 0 1 3.32 5.34a2.95 2.95 0 0 1 2.324.035c1.54.692 3.402.318 4.527-.909l.126-.137a.478.478 0 0 0-.043-.692.522.522 0 0 0-.718.042l-.126.138c-.83.904-2.202 1.179-3.337.67a4.002 4.002 0 0 0-3.423.076c.592-1.519 2.022-2.589 4.273-3.188 2.236-.594 4.612-.517 6.872.222l3.027.99.04 2.534c-1.348 1.767-3.314 2.963-5.555 3.374a9.216 9.216 0 0 1-6.59-1.254 2.842 2.842 0 0 0-3.073.027zm-.626 8.309c0-.789.547-1.456 1.295-1.668v2.657c0 .23.008.458.025.685-.76-.204-1.32-.877-1.32-1.674zm17.114 6.993c-1.637 1.579-3.814 2.448-6.13 2.448H12a8.72 8.72 0 0 1-6.134-2.486c-1.636-1.6-2.537-3.718-2.537-5.966V7.79c.288.021.574.111.831.273a10.26 10.26 0 0 0 7.336 1.397 10.059 10.059 0 0 0 5.367-2.816v1.33c0 2.13 1.667 3.889 3.808 4.132v4.554c0 2.233-.902 4.332-2.54 5.911zm3.537-5.32c.013-.196.02-.393.02-.59V13.91c.748.212 1.295.88 1.295 1.668 0 .795-.557 1.467-1.315 1.673z"/>
    </g>
</svg>
