<svg xmlns="http://www.w3.org/2000/svg" width="30" height="24" viewBox="0 0 30 24">
    <g fill="#9CB3C4" fill-rule="nonzero">
        <path d="M18.168 16.09h-6.566a.898.898 0 0 0-.897.898v2.014c0 .495.402.898.897.898h6.566a.898.898 0 0 0 .898-.898v-2.014a.899.899 0 0 0-.898-.897zm-.256 2.656h-6.053v-1.501h6.053v1.5z"/>
        <path d="M29.479 11.103l.009-.004-4.327-8.554a2.033 2.033 0 0 0-1.822-1.12h-.822V.629a.577.577 0 0 0-.577-.577H7.83a.577.577 0 0 0-.577.577v.796h-.822c-.775 0-1.473.429-1.823 1.12L.283 11.1l.01.004A2.008 2.008 0 0 0 0 12.15v9.036c0 1.115.906 2.02 2.02 2.02h25.73c1.114 0 2.02-.906 2.02-2.02V12.15c0-.382-.106-.74-.291-1.046zm-6.962-8.396h.822c.288 0 .548.16.678.417l3.543 7.004h-2.409V7.973a.577.577 0 0 0-.577-.577h-.714V4.301a.577.577 0 0 0-.576-.577h-.767V2.707zm1.48 5.843v1.578h-3.044c-.522 0-.999.308-1.213.784l-.832 1.844a.049.049 0 0 1-.044.029h-7.957a.049.049 0 0 1-.045-.029l-.83-1.844a1.333 1.333 0 0 0-1.214-.784H5.773V8.55h18.224zM8.408 1.206h12.955v2.518H8.408V1.206zm14.299 3.672v2.518H7.064V4.878h15.643zM5.753 3.124a.757.757 0 0 1 .679-.417h.822v1.017h-.767a.577.577 0 0 0-.577.577v3.095h-.714a.577.577 0 0 0-.576.577v2.155H2.21l3.543-7.004zm21.997 18.8H2.02a.74.74 0 0 1-.738-.739V12.15a.74.74 0 0 1 .739-.739h6.797c.019 0 .036.012.044.03l.831 1.843c.215.476.691.784 1.214.784h7.957c.522 0 .999-.308 1.213-.784l.831-1.844a.049.049 0 0 1 .045-.029h6.797a.74.74 0 0 1 .738.739v9.036a.74.74 0 0 1-.738.739z"/>
    </g>
</svg>
