<svg xmlns="http://www.w3.org/2000/svg" width="120" height="25" viewBox="0 0 120 25">
    <defs>
        <linearGradient id="a" x1="-87.689%" x2="50%" y1="235.245%" y2="-197.662%">
            <stop offset="0%" stop-color="#00A8C5"/>
            <stop offset="100%" stop-color="#FFFF7E"/>
        </linearGradient>
    </defs>
    <g fill="url(#a)" fill-rule="evenodd">
        <ellipse cx="21.79" cy="15.556" rx="2.21" ry="2.242"/>
        <ellipse cx="5.155" cy="2.242" rx="2.21" ry="2.242"/>
        <path d="M13.63 17.548c1.047 0 2.405-1.308 2.842-1.922 1.008-1.416 1.485-2.947 1.008-5.365-.477-2.419-3.006-4.107-3.63-4.107-.582 0 1.26 2.396.852 4.89-.325 1.986-3.03 3.295-3.037 4.661-.005 1.366.92 1.843 1.965 1.843z"/>
        <path d="M12.573 8.073c-.507-.915-2.31-1.47-3.058-1.554-1.728-.195-3.298.13-5.182 1.72-1.884 1.589-2.134 4.62-1.832 5.165.282.51 1.485-2.263 3.864-3.115 1.895-.68 4.351 1.053 5.549.396 1.198-.657 1.167-1.697.66-2.612z"/>
        <path d="M4.79 13.635c-.538.897-.117 2.735.184 3.426.695 1.594 1.762 2.79 4.08 3.627 2.319.837 5.069-.461 5.39-.996.3-.499-2.703-.154-4.63-1.788-1.536-1.302-1.264-4.295-2.432-5.004-1.168-.708-2.053-.162-2.591.735z"/>
        <ellipse cx="2.472" cy="22.443" rx="2.21" ry="2.242"/>
    </g>
</svg>
