<svg xmlns="http://www.w3.org/2000/svg" width="58" height="58" viewBox="0 0 58 58">
    <defs>
        <linearGradient id="a" x1="-87.689%" x2="50%" y1="235.245%" y2="-197.662%">
            <stop offset="0%" stop-color="#00A8C5"/>
            <stop offset="100%" stop-color="#FFFF7E"/>
        </linearGradient>
    </defs>
    <g fill="url(#a)" fill-rule="evenodd" transform="translate(-2)">
        <ellipse cx="53.5" cy="33.869" rx="5.992" ry="5.927"/>
        <ellipse cx="15.836" cy="5.927" rx="5.992" ry="5.927"/>
        <path d="M35.096 42.76c2.836 0 6.519-3.458 7.704-5.081 2.733-3.744 4.026-7.79 2.733-14.183-1.292-6.392-8.15-10.855-9.84-10.855-1.58 0 3.414 6.334 2.308 12.926-.88 5.25-8.217 8.709-8.233 12.32-.016 3.611 2.491 4.872 5.328 4.872z"/>
        <path d="M31.89 17.774c-1.374-2.48-6.183-4.025-8.177-4.275-4.6-.575-8.766.256-13.73 4.485-4.964 4.23-5.543 12.391-4.723 13.87.766 1.381 3.884-6.057 10.186-8.286 5.019-1.775 11.6 2.965 14.767 1.228 3.166-1.737 3.053-4.54 1.678-7.022z"/>
        <path d="M11.46 32.355c-1.46 2.432-.393 7.369.388 9.22 1.801 4.272 4.604 7.464 10.749 9.648 6.144 2.184 13.502-1.395 14.373-2.844.813-1.354-7.188-.335-12.27-4.678-4.046-3.46-3.232-11.53-6.32-13.403-3.086-1.873-5.458-.374-6.92 2.057z"/>
        <ellipse cx="8.56" cy="52.073" rx="5.992" ry="5.927"/>
    </g>
</svg>
