<svg xmlns="http://www.w3.org/2000/svg" width="44" height="44" viewBox="0 0 44 44">
    <g fill="none" fill-rule="evenodd">
        <circle cx="22" cy="22" r="21" stroke="#ffffff"/>
        <path stroke="#ffffff" stroke-linecap="round" d="M11.807 11.622c.805-4.415 6.286-3.992 7.517-1.536l-7.517 1.536zm11.38-.44c2.39-4.577 6.696-.704 6.696.758l-6.695-.759zm-5.619 3.711c-5.202 0-5.661 5.979-.825 6.888 5.004.942 5.561-4.29 2.24-6.447l-1.413-.44h-.002z"/>
        <path stroke="#ffffff" stroke-linecap="round" d="M26.995 15.642c-6.062-1.583-8.094 5-3.3 6.452 4.559 1.383 7.03-3.299 3.742-6.291l-.442-.16z"/>
        <circle cx="17.775" cy="18.272" r="1.448" fill="#ffffff" fill-rule="nonzero"/>
        <circle cx="24.734" cy="18.769" r="1.448" fill="#ffffff" fill-rule="nonzero"/>
        <path stroke="#ffffff" stroke-linecap="round" d="M18.042 26.018c.375.466.85.336 1.383.605 1.383.7 3.151.502 4.555.094.562-.164 1.064.058 1.461-.352"/>
        <path stroke="#ffffff" stroke-linecap="round" d="M33.877 25.2c0 5.484-6.111 9.03-11.793 9.167-5.518.132-11.224-3.34-11.224-8.16"/>
    </g>
</svg>
