<svg xmlns="http://www.w3.org/2000/svg" width="27" height="32" viewBox="0 0 27 32">
    <g fill="#9CB3C4" fill-rule="nonzero">
        <path d="M26.25 5.428L20.969.145a.495.495 0 0 0-.35-.145H4.768c-.855 0-1.551.696-1.551 1.552v17.995H1.599c-.856 0-1.552.696-1.552 1.552v5.283c0 .856.696 1.552 1.552 1.552h1.618v2.146c0 .856.696 1.552 1.551 1.552h20.076c.856 0 1.552-.696 1.552-1.552V5.778a.495.495 0 0 0-.145-.35zm-5.137-3.737l3.592 3.592h-3.03a.562.562 0 0 1-.562-.561V1.69zM1.599 26.944a.562.562 0 0 1-.562-.562V21.1c0-.31.252-.561.562-.561h14.264c.31 0 .561.252.561.561v5.283c0 .31-.252.562-.561.562H1.599zm23.806 3.136c0 .31-.251.562-.56.562H4.767a.562.562 0 0 1-.56-.562v-2.146h11.655c.856 0 1.552-.696 1.552-1.552V21.1c0-.855-.696-1.552-1.552-1.552H4.207V1.552c0-.31.252-.561.561-.561h15.354v3.73c0 .856.697 1.553 1.552 1.553h3.731V30.08z"/>
        <path d="M4.768 21.66H2.655a.495.495 0 0 0-.495.496v3.17a.495.495 0 0 0 .99 0v-.562h1.618c.856 0 1.552-.696 1.552-1.552 0-.855-.696-1.551-1.552-1.551zm0 2.114H3.151V22.65h1.617a.562.562 0 0 1 0 1.123zM8.995 21.66H7.41a.495.495 0 0 0-.495.496v3.17c0 .273.221.495.495.495h1.585c1.147 0 2.08-.933 2.08-2.08s-.933-2.08-2.08-2.08zm0 3.17h-1.09v-2.179h1.09a1.09 1.09 0 0 1 0 2.18zM14.806 21.66h-2.641a.495.495 0 0 0-.496.496v3.17a.495.495 0 0 0 .991 0v-1.09h1.09a.495.495 0 0 0 0-.99h-1.09v-.595h2.146a.495.495 0 0 0 0-.99zM14.806 5.811a5.785 5.785 0 0 0-5.778 5.779 5.785 5.785 0 0 0 5.778 5.778 5.785 5.785 0 0 0 5.779-5.778 5.785 5.785 0 0 0-5.779-5.779zm0 10.567a4.793 4.793 0 0 1-4.788-4.788 4.793 4.793 0 0 1 4.788-4.788 4.793 4.793 0 0 1 4.788 4.788 4.793 4.793 0 0 1-4.788 4.788z"/>
        <path d="M14.812 8.453h-.006a.493.493 0 0 0-.492.495.498.498 0 0 0 .993 0 .495.495 0 0 0-.495-.495zM15.335 13.736h-.033v-2.708h.033a.495.495 0 0 0 0-.99h-1.057a.495.495 0 0 0 0 .99h.033v2.708h-.033a.495.495 0 0 0 0 .99h1.057a.495.495 0 0 0 0-.99z"/>
    </g>
</svg>
