<svg xmlns="http://www.w3.org/2000/svg" width="15" height="20" viewBox="0 0 15 20">
    <g fill="#485465" fill-rule="nonzero">
        <path d="M14.878 4.289L10.71.122A.416.416 0 0 0 10.417 0h-8.75C.747 0 0 .747 0 1.667v16.666C0 19.253.747 20 1.667 20h11.666c.92 0 1.667-.747 1.667-1.667V4.583a.416.416 0 0 0-.122-.294zm-4.045-2.866l2.744 2.744h-1.91a.834.834 0 0 1-.834-.834v-1.91zm3.334 16.91c0 .46-.374.834-.834.834H1.667a.834.834 0 0 1-.834-.834V1.667c0-.46.374-.834.834-.834H10v2.5C10 4.253 10.747 5 11.667 5h2.5v13.333z"/>
        <path d="M9.124 12.565a12.076 12.076 0 0 1-.996-.86c-.317-.317-.6-.625-.846-.918.383-1.184.551-1.795.551-2.12 0-1.383-.5-1.667-1.25-1.667-.57 0-1.25.296-1.25 1.707 0 .621.34 1.376 1.016 2.253-.165.505-.36 1.086-.577 1.742a9.55 9.55 0 0 1-.34.875 6.921 6.921 0 0 0-.285.134c-.331.165-.646.314-.938.453C2.88 14.794 2 15.21 2 16.033c0 .597.649.967 1.25.967.775 0 1.945-1.035 2.8-2.778.886-.35 1.989-.61 2.86-.771.697.536 1.467 1.049 1.84 1.049 1.033 0 1.25-.597 1.25-1.098 0-.985-1.126-.985-1.667-.985-.168 0-.619.05-1.209.148zM3.25 16.167a.658.658 0 0 1-.417-.134c0-.296.881-.713 1.733-1.117l.165-.077c-.626.907-1.245 1.328-1.481 1.328zm2.917-7.46c0-.874.27-.874.416-.874.295 0 .417 0 .417.834 0 .175-.117.615-.332 1.301-.327-.504-.501-.935-.501-1.261zm.32 4.478l.075-.22c.154-.464.294-.88.418-1.256.173.19.359.386.559.586.078.078.272.254.53.474-.514.112-1.06.25-1.583.416zm4.68.217c0 .187 0 .265-.387.267-.113-.024-.376-.179-.7-.4a2.68 2.68 0 0 1 .253-.019c.616 0 .79.06.834.152z"/>
    </g>
</svg>
