<svg xmlns="http://www.w3.org/2000/svg" width="116" height="33" viewBox="0 0 116 33">
    <g fill="#FFF" fill-rule="evenodd" transform="translate(-1)">
        <ellipse cx="30.316" cy="19.27" rx="3.395" ry="3.372"/>
        <ellipse cx="8.974" cy="3.372" rx="3.395" ry="3.372"/>
        <path d="M19.888 24.328c1.607 0 3.694-1.967 4.365-2.89 1.55-2.13 2.282-4.433 1.55-8.07-.733-3.636-4.62-6.176-5.577-6.176-.895 0 1.935 3.604 1.308 7.355-.5 2.987-4.656 4.955-4.665 7.01-.01 2.054 1.411 2.771 3.019 2.771z"/>
        <path d="M18.102 10.107c-.78-1.405-3.512-2.277-4.645-2.416-2.614-.322-4.983.153-7.808 2.557-2.826 2.404-3.163 7.034-2.699 7.871.434.783 2.214-3.44 5.798-4.71 2.855-1.011 6.592 1.67 8.393.683 1.801-.989 1.74-2.579.96-3.985z"/>
        <path d="M6.465 18.415c-.828 1.377-.217 4.18.229 5.23 1.028 2.425 2.624 4.24 6.119 5.484 3.495 1.245 7.673-.778 8.166-1.599.461-.767-4.086-.197-6.978-2.666-2.303-1.967-1.849-6.543-3.605-7.61-1.757-1.065-3.103-.217-3.931 1.16z"/>
        <ellipse cx="4.851" cy="29.628" rx="3.395" ry="3.372"/>
    </g>
</svg>
